#N canvas 15 545 940 498 12;
#X obj 119 275 phasor~;
#X obj 119 310 lop~ 6000;
#X obj 119 392 dac~;
#X msg 209 312 0.1;
#X msg 248 311 0;
#X floatatom 72 185 5 0 0 0 - - -;
#X floatatom 119 246 5 0 0 0 - - -;
#X obj 72 140 r x;
#X obj 119 216 mtof 36;
#X obj 119 348 *~ 0.1;
#X obj 253 45 loadbang;
#X msg 253 129 \; pd dsp 1;
#X obj 253 89 delay 1000;
#X msg 119 185 40;
#X obj 119 143 loadbang;
#X connect 0 0 1 0;
#X connect 1 0 9 0;
#X connect 4 0 9 1;
#X connect 5 0 8 0;
#X connect 6 0 0 0;
#X connect 7 0 5 0;
#X connect 8 0 6 0;
#X connect 9 0 2 0;
#X connect 9 0 2 1;
#X connect 10 0 12 0;
#X connect 12 0 11 0;
#X connect 13 0 8 0;
#X connect 14 0 13 0;
